<svg width="42" height="42" viewBox="0 0 42 42" fill="none" xmlns="http://www.w3.org/2000/svg">
    <path d="M36.8729 9.1525C34.0554 8.8725 31.2379 8.6625 28.4029 8.505V8.4875L28.0179 6.2125C27.7554 4.6025 27.3704 2.1875 23.2754 2.1875H18.6904C14.6129 2.1875 14.2279 4.4975 13.9479 6.195L13.5804 8.435C11.9529 8.54 10.3254 8.645 8.6979 8.8025L5.1279 9.1525C4.3929 9.2225 3.8679 9.87 3.9379 10.5875C4.0079 11.305 4.6379 11.83 5.3729 11.76L8.9429 11.41C18.1129 10.5 27.3529 10.85 36.6279 11.7775C36.6804 11.7775 36.7154 11.7775 36.7679 11.7775C37.4329 11.7775 38.0104 11.27 38.0804 10.5875C38.1329 9.87 37.6079 9.2225 36.8729 9.1525Z" fill="#52789B"/>
    <path d="M33.6525 14.245C33.2325 13.8075 32.655 13.5625 32.06 13.5625H9.94005C9.34505 13.5625 8.75005 13.8075 8.34755 14.245C7.94505 14.6825 7.71755 15.2775 7.75255 15.89L8.83755 33.845C9.03005 36.505 9.27505 39.83 15.3826 39.83H26.6175C32.725 39.83 32.9701 36.5225 33.1625 33.845L34.2475 15.9075C34.2825 15.2775 34.055 14.6825 33.6525 14.245ZM23.905 31.0625H18.0775C17.3601 31.0625 16.765 30.4675 16.765 29.75C16.765 29.0325 17.3601 28.4375 18.0775 28.4375H23.905C24.6225 28.4375 25.2175 29.0325 25.2175 29.75C25.2175 30.4675 24.6225 31.0625 23.905 31.0625ZM25.375 24.0625H16.6251C15.9075 24.0625 15.3126 23.4675 15.3126 22.75C15.3126 22.0325 15.9075 21.4375 16.6251 21.4375H25.375C26.0926 21.4375 26.6875 22.0325 26.6875 22.75C26.6875 23.4675 26.0926 24.0625 25.375 24.0625Z" fill="#52789B"/>
</svg>
