<svg width="24" height="24" viewBox="0 0 24 24" fill="none" xmlns="http://www.w3.org/2000/svg">
    <path d="M9 2C6.38 2 4.25 4.13 4.25 6.75C4.25 9.32 6.26 11.4 8.88 11.49C8.96 11.48 9.04 11.48 9.1 11.49C9.12 11.49 9.13 11.49 9.15 11.49C9.16 11.49 9.16 11.49 9.17 11.49C11.73 11.4 13.74 9.32 13.75 6.75C13.75 4.13 11.62 2 9 2Z" fill="#515265"/>
    <path d="M14.08 14.15C11.29 12.29 6.73996 12.29 3.92996 14.15C2.65996 15 1.95996 16.15 1.95996 17.38C1.95996 18.61 2.65996 19.75 3.91996 20.59C5.31996 21.53 7.15996 22 8.99996 22C10.84 22 12.68 21.53 14.08 20.59C15.34 19.74 16.04 18.6 16.04 17.36C16.03 16.13 15.34 14.99 14.08 14.15Z" fill="#515265"/>
    <path d="M19.9904 7.33998C20.1504 9.27998 18.7704 10.98 16.8604 11.21C16.8504 11.21 16.8504 11.21 16.8404 11.21H16.8104C16.7504 11.21 16.6904 11.21 16.6404 11.23C15.6704 11.28 14.7804 10.97 14.1104 10.4C15.1404 9.47998 15.7304 8.09998 15.6104 6.59998C15.5404 5.78998 15.2604 5.04998 14.8404 4.41998C15.2204 4.22998 15.6604 4.10998 16.1104 4.06998C18.0704 3.89998 19.8204 5.35998 19.9904 7.33998Z" fill="#515265"/>
    <path d="M21.9902 16.59C21.9102 17.56 21.2902 18.4 20.2502 18.97C19.2502 19.52 17.9902 19.78 16.7402 19.75C17.4602 19.1 17.8802 18.29 17.9602 17.43C18.0602 16.19 17.4702 15 16.2902 14.05C15.6202 13.52 14.8402 13.1 13.9902 12.79C16.2002 12.15 18.9802 12.58 20.6902 13.96C21.6102 14.7 22.0802 15.63 21.9902 16.59Z" fill="#515265"/>
</svg>
